HIERARCHY
ROOT hip
{
  OFFSET 0 0 0
  CHANNELS 6 Xposition Yposition Zposition Zrotation Yrotation Xrotation
  JOINT abdomen
  {
    OFFSET 0 20.6881 -0.73152
    CHANNELS 3 Zrotation Xrotation Yrotation
    JOINT chest
    {
      OFFSET 0 11.7043 -0.48768
      CHANNELS 3 Zrotation Xrotation Yrotation
      JOINT neck
      {
        OFFSET 0 22.1894 -2.19456
        CHANNELS 3 Zrotation Xrotation Yrotation
        JOINT head
        {
          OFFSET -0.24384 7.07133 1.2192
          CHANNELS 3 Zrotation Xrotation Yrotation
          JOINT leftEye
          {
            OFFSET 4.14528 8.04674 8.04672
            CHANNELS 3 Zrotation Xrotation Yrotation
            End Site
            {
              OFFSET 1 0 0
            }
          }
          JOINT rightEye
          {
            OFFSET -3.6576 8.04674 8.04672
            CHANNELS 3 Zrotation Xrotation Yrotation
            End Site
            {
              OFFSET 1 0 0
            }
          }
        }
      }
      JOINT rCollar
      {
        OFFSET -2.68224 19.2634 -4.8768
        CHANNELS 3 Zrotation Xrotation Yrotation
        JOINT rShldr
        {
          OFFSET -8.77824 -1.95073 1.46304
          CHANNELS 3 Zrotation Xrotation Yrotation
          JOINT rForeArm
          {
            OFFSET -28.1742 -1.7115 0.48768
            CHANNELS 3 Zrotation Xrotation Yrotation
            JOINT rHand
            {
              OFFSET -22.5879 0.773209 7.07136
              CHANNELS 3 Zrotation Xrotation Yrotation
              JOINT rThumb1
              {
                OFFSET -1.2192 -0.487915 3.41376
                CHANNELS 3 Zrotation Xrotation Yrotation
                JOINT rThumb2
                {
                  OFFSET -3.37035 -0.52449 3.41376
                  CHANNELS 3 Zrotation Xrotation Yrotation
                  End Site
                  {
                    OFFSET -1.78271 -1.18214 1.43049
                  }
                }
              }
              JOINT rIndex1
              {
                OFFSET -7.75947 0.938293 5.60832
                CHANNELS 3 Zrotation Xrotation Yrotation
                JOINT rIndex2
                {
                  OFFSET -2.54057 -0.884171 1.56538
                  CHANNELS 3 Zrotation Xrotation Yrotation
                  End Site
                  {
                    OFFSET -1.62519 -0.234802 1.16502
                  }
                }
              }
              JOINT rMid1
              {
                OFFSET -8.24714 1.18213 3.41376
                CHANNELS 3 Zrotation Xrotation Yrotation
                JOINT rMid2
                {
                  OFFSET -3.10165 -0.590103 1.0647
                  CHANNELS 3 Zrotation Xrotation Yrotation
                  End Site
                  {
                    OFFSET -2.48547 -0.328903 0.83742
                  }
                }
              }
              JOINT rRing1
              {
                OFFSET -8.82822 0.546677 1.51678
                CHANNELS 3 Zrotation Xrotation Yrotation
                JOINT rRing2
                {
                  OFFSET -2.60934 -0.819778 -0.0198488
                  CHANNELS 3 Zrotation Xrotation Yrotation
                  End Site
                  {
                    OFFSET -2.33842 -0.294052 0.168128
                  }
                }
              }
              JOINT rPinky1
              {
                OFFSET -8.27202 -0.0477905 -0.4584
                CHANNELS 3 Zrotation Xrotation Yrotation
                JOINT rPinky2
                {
                  OFFSET -1.82734 -0.647385 -0.700984
                  CHANNELS 3 Zrotation Xrotation Yrotation
                  End Site
                  {
                    OFFSET -1.69225 -0.51767 -0.607171
                  }
                }
              }
            }
          }
        }
      }
      JOINT lCollar
      {
        OFFSET 2.68224 19.2634 -4.8768
        CHANNELS 3 Zrotation Xrotation Yrotation
        JOINT lShldr
        {
          OFFSET 8.77824 -1.95073 1.46304
          CHANNELS 3 Zrotation Xrotation Yrotation
          JOINT lForeArm
          {
            OFFSET 28.1742 -1.7115 0.48768
            CHANNELS 3 Zrotation Xrotation Yrotation
            JOINT lHand
            {
              OFFSET 22.5879 0.773209 7.07136
              CHANNELS 3 Zrotation Xrotation Yrotation
              JOINT lThumb1
              {
                OFFSET 1.2192 -0.487915 3.41376
                CHANNELS 3 Zrotation Xrotation Yrotation
                JOINT lThumb2
                {
                  OFFSET 3.37035 -0.52449 3.41376
                  CHANNELS 3 Zrotation Xrotation Yrotation
                  End Site
                  {
                    OFFSET 1.78271 -1.18214 1.43049
                  }
                }
              }
              JOINT lIndex1
              {
                OFFSET 7.75947 0.938293 5.60832
                CHANNELS 3 Zrotation Xrotation Yrotation
                JOINT lIndex2
                {
                  OFFSET 2.54057 -0.884171 1.56538
                  CHANNELS 3 Zrotation Xrotation Yrotation
                  End Site
                  {
                    OFFSET 1.62519 -0.234802 1.16502
                  }
                }
              }
              JOINT lMid1
              {
                OFFSET 8.24714 1.18213 3.41376
                CHANNELS 3 Zrotation Xrotation Yrotation
                JOINT lMid2
                {
                  OFFSET 3.10165 -0.590103 1.0647
                  CHANNELS 3 Zrotation Xrotation Yrotation
                  End Site
                  {
                    OFFSET 2.48547 -0.328903 0.83742
                  }
                }
              }
              JOINT lRing1
              {
                OFFSET 8.82822 0.546677 1.51678
                CHANNELS 3 Zrotation Xrotation Yrotation
                JOINT lRing2
                {
                  OFFSET 2.60934 -0.819778 -0.0198488
                  CHANNELS 3 Zrotation Xrotation Yrotation
                  End Site
                  {
                    OFFSET 2.33842 -0.294052 0.168128
                  }
                }
              }
              JOINT lPinky1
              {
                OFFSET 8.27202 -0.0477905 -0.4584
                CHANNELS 3 Zrotation Xrotation Yrotation
                JOINT lPinky2
                {
                  OFFSET 1.82734 -0.647385 -0.700984
                  CHANNELS 3 Zrotation Xrotation Yrotation
                  End Site
                  {
                    OFFSET 1.69225 -0.51767 -0.607171
                  }
                }
              }
            }
          }
        }
      }
    }
  }
  JOINT rButtock
  {
    OFFSET -8.77824 4.35084 1.2192
    CHANNELS 3 Zrotation Xrotation Yrotation
    JOINT rThigh
    {
      OFFSET 0 -1.70687 -2.19456
      CHANNELS 3 Zrotation Xrotation Yrotation
      JOINT rShin
      {
        OFFSET 0 -36.8199 0.73152
        CHANNELS 3 Zrotation Xrotation Yrotation
        JOINT rFoot
        {
          OFFSET 0.73152 -45.1104 -5.12064
          CHANNELS 3 Zrotation Xrotation Yrotation
          End Site
          {
            OFFSET -1.1221 -3.69964 12.103
          }
        }
      }
    }
  }
  JOINT lButtock
  {
    OFFSET 8.77824 4.35084 1.2192
    CHANNELS 3 Zrotation Xrotation Yrotation
    JOINT lThigh
    {
      OFFSET 0 -1.70687 -2.19456
      CHANNELS 3 Zrotation Xrotation Yrotation
      JOINT lShin
      {
        OFFSET 0 -36.8199 0.73152
        CHANNELS 3 Zrotation Xrotation Yrotation
        JOINT lFoot
        {
          OFFSET -0.73152 -45.1104 -5.12064
          CHANNELS 3 Zrotation Xrotation Yrotation
          End Site
          {
            OFFSET 1.1221 -3.69964 12.103
          }
        }
      }
    }
  }
}
MOTION
Frames:	4
Frame Time:	0.00833333
-6.62927 85.1388 130.055 0.0 0.0 0.0 0.410576 -0.00336394 0.0117802 0.113455 -0.0053947 0.0196586 1.76713e-14 7.95139e-16 1.8636e-17 5.31004e-14 9.54166e-15 9.47333e-17 -0.0 0.0 0.0 -0.0 0.0 0.0 8.89461e-15 4.27076e-18 9.93923e-17 1.88073e-13 2.48481e-16 2.18663e-15 3.20232e-12 -9.54365e-13 -9.54166e-15 3.6645e-11 9.74442e-13 1.11319e-13 8.64385e-11 4.0152e-14 2.06736e-13 1.49266e-10 6.67917e-14 3.52246e-13 8.64407e-11 4.01545e-14 2.03556e-13 7.73091 5.47488 0.417314 8.64378e-11 4.01545e-14 2.09917e-13 2.90554 0.965183 0.102902 8.64483e-11 4.02539e-14 2.08326e-13 10.2786 0.731801 0.0259123 8.64355e-11 4.21423e-14 2.16278e-13 2.22167 -0.733487 -0.20892 8.79781e-15 4.65902e-18 -9.93923e-17 1.84554e-13 -1.30452e-16 1.98785e-16 3.19964e-12 9.60726e-13 -3.81667e-14 3.66394e-11 -9.48998e-13 1.39944e-13 8.64261e-11 2.63159e-14 2.09917e-13 1.49267e-10 4.77083e-14 3.63378e-13 8.64228e-11 2.62396e-14 2.19458e-13 -7.73091 5.47488 -0.417314 8.64264e-11 2.61402e-14 2.06736e-13 -2.90554 0.965183 -0.102902 8.64189e-11 2.6339e-14 2.10712e-13 -10.2786 0.731801 -0.0259123 8.64332e-11 2.8625e-14 2.00375e-13 -2.22167 -0.733487 0.20892 -2.03217e-16 0.0 -3.88251e-19 0.770891 -4.17179 -0.0656914 -0.00265691 2.00547 -0.0182886 -0.462127 2.16691 0.0961408 2.03217e-16 0.0 3.88251e-19 -0.142949 -2.55997 0.0260622 0.00716113 -0.91406 0.0621536 0.453477 3.47456 -0.121182
-6.46236 83.5955 124.793 177.704 -1.1395 -155.446 -1.32895 -8.03285 -0.904392 0.99006 3.74297 -0.344575 0.351421 2.67655 -1.28477 0.962762 -2.73258 -2.1994 -0.0 0.0 0.0 -0.0 0.0 0.0 1.66805e-14 4.88292e-14 2.16745e-14 22.7676 2.59729 -1.54318 -4.57675 -2.15584 7.0638 0.000101827 -0.225428 -0.031681 6.26025e-11 4.95915e-11 1.45316e-10 1.0825e-10 8.56155e-11 2.52135e-10 6.26048e-11 4.95994e-11 1.45312e-10 7.73091 5.47488 0.417314 6.2601e-11 4.95926e-11 1.4532e-10 2.90554 0.965183 0.102902 6.26111e-11 4.95924e-11 1.45319e-10 10.2786 0.731801 0.0259123 6.25991e-11 4.96008e-11 1.45327e-10 2.22167 -0.733487 -0.20892 1.65673e-14 4.88299e-14 2.1461e-14 -15.7953 6.62831 -2.38567 6.93861 -3.98293 -9.78569 -0.000212427 -0.341403 0.0479785 -8.30373e-12 -2.3997e-10 2.08393e-12 -1.3995e-11 -4.14909e-10 3.71686e-12 -8.3072e-12 -2.39971e-10 2.09246e-12 -7.73091 5.47488 -0.417314 -8.30279e-12 -2.39968e-10 2.08155e-12 -2.90554 0.965183 -0.102902 -8.30992e-12 -2.39968e-10 2.08577e-12 -10.2786 0.731801 -0.0259123 -8.29775e-12 -2.39967e-10 2.07519e-12 -2.22167 -0.733487 0.20892 -2.03217e-16 0.0 -3.88251e-19 0.805224 -11.0301 1.28622 -0.000821483 3.86049 0.0290372 -0.602196 -1.53708 -0.880997 2.03217e-16 0.0 3.88251e-19 -1.05157 -8.99415 -2.02316 0.00777708 0.992612 0.0387878 0.504906 2.03299 -1.26794
-6.47031 83.5928 124.783 177.66 -1.214 -155.498 -3.45733 -16.5167 -1.93662 1.9708 7.70614 -0.735662 0.85242 5.49797 -2.65194 1.74722 -5.60575 -4.54126 -0.0 0.0 0.0 -0.0 0.0 0.0 2.44441e-14 1.00785e-13 4.51428e-14 46.9841 5.33627 -3.18343 -8.83943 -4.32391 14.5596 -6.18061e-05 -0.460654 -0.0647407 4.8887e-11 9.47355e-11 3.1676e-10 8.47429e-11 1.63545e-10 5.49535e-10 4.88895e-11 9.47522e-11 3.16755e-10 7.73091 5.47488 0.417314 4.88847e-11 9.47377e-11 3.16765e-10 2.90554 0.965183 0.102902 4.88944e-11 9.47372e-11 3.16764e-10 10.2786 0.731801 0.0259123 4.88831e-11 9.47529e-11 3.16771e-10 2.22167 -0.733487 -0.20892 2.43095e-14 1.00786e-13 4.49129e-14 -31.8479 13.5871 -5.02179 12.8303 -7.8222 -20.3013 0.000206085 -0.714962 0.100482 -1.09074e-10 -5.05888e-10 4.2526e-12 -1.87673e-10 -8.74714e-10 7.58493e-12 -1.09077e-10 -5.0589e-10 4.25996e-12 -7.73091 5.47488 -0.417314 -1.09072e-10 -5.05884e-10 4.25101e-12 -2.90554 0.965183 -0.102902 -1.09079e-10 -5.05883e-10 4.25563e-12 -10.2786 0.731801 -0.0259123 -1.09069e-10 -5.05883e-10 4.24465e-12 -2.22167 -0.733487 0.20892 -2.03217e-16 0.0 -3.88251e-19 1.21108 -18.2691 2.80737 -0.00215397 5.82274 0.0793496 -0.887886 -5.45248 -1.9193 2.03217e-16 0.0 3.88251e-19 -2.5309 -15.7681 -4.30092 0.0101072 3.00931 0.014099 0.496654 0.50999 -2.47729
-6.47215 83.5941 124.779 177.656 -1.1971 -155.52 -5.6402 -24.0661 -2.96834 2.88859 11.2379 -1.09177 1.41709 8.01343 -3.88813 2.25501 -8.1492 -6.65823 -0.0 0.0 0.0 -0.0 0.0 0.0 3.22524e-14 1.46479e-13 6.48248e-14 68.7252 7.76915 -4.66772 -12.1684 -6.07515 21.3017 -0.000442449 -0.676283 -0.0950487 1.49303e-11 1.48694e-10 4.35535e-10 2.62181e-11 2.56713e-10 7.55699e-10 1.49331e-11 1.48718e-10 4.3553e-10 7.73091 5.47488 0.417314 1.49274e-11 1.48697e-10 4.35541e-10 2.90554 0.965183 0.102902 1.49367e-11 1.48697e-10 4.3554e-10 10.2786 0.731801 0.0259123 1.49261e-11 1.48718e-10 4.35547e-10 2.22167 -0.733487 -0.20892 3.21062e-14 1.4648e-13 6.45817e-14 -45.6469 19.7426 -7.55564 16.8759 -10.5559 -29.8402 0.00107826 -1.02421 0.143956 -1.97763e-10 -7.19963e-10 5.83197e-12 -3.40518e-10 -1.24482e-09 1.04238e-11 -1.97767e-10 -7.19965e-10 5.83845e-12 -7.73091 5.47488 -0.417314 -1.97761e-10 -7.19957e-10 5.83117e-12 -2.90554 0.965183 -0.102902 -1.97768e-10 -7.19956e-10 5.83588e-12 -10.2786 0.731801 -0.0259123 -1.9776e-10 -7.19957e-10 5.82481e-12 -2.22167 -0.733487 0.20892 -2.03217e-16 0.0 -3.88251e-19 1.93075 -24.693 4.31347 -0.00641519 7.5705 0.124554 -1.26465 -8.93458 -2.86903 2.03217e-16 0.0 3.88251e-19 -4.33955 -21.7511 -6.51237 0.0136759 4.80596 -0.00797366 0.434798 -0.847024 -3.55989
